<svg width="400" height="400" viewBox="0 0 400 400" fill="none" xmlns="http://www.w3.org/2000/svg">
<path d="M332.49 195.74C340.12 203.37 344.84 213.91 344.84 225.56C344.84 237.48 339.9 248.24 331.95 255.91" stroke="#6A0BFF" stroke-width="12" stroke-miterlimit="10" stroke-linecap="round" stroke-linejoin="round"/>
<path d="M127.6 195.74C135.23 203.37 139.95 213.91 139.95 225.56C139.95 237.48 135.01 248.24 127.06 255.91" stroke="#6A0BFF" stroke-width="12" stroke-miterlimit="10" stroke-linecap="round" stroke-linejoin="round"/>
<path d="M97.32 287.5C131.738 287.5 159.64 259.598 159.64 225.18C159.64 190.762 131.738 162.86 97.32 162.86C62.9016 162.86 35 190.762 35 225.18C35 259.598 62.9016 287.5 97.32 287.5Z" stroke="#191919" stroke-width="12" stroke-miterlimit="10" stroke-linecap="round" stroke-linejoin="round"/>
<path d="M302.68 287.88C337.098 287.88 365 259.979 365 225.56C365 191.142 337.098 163.24 302.68 163.24C268.262 163.24 240.36 191.142 240.36 225.56C240.36 259.979 268.262 287.88 302.68 287.88Z" stroke="#191919" stroke-width="12" stroke-miterlimit="10" stroke-linecap="round" stroke-linejoin="round"/>
<path d="M193.89 211.44L143.55 117.09" stroke="#191919" stroke-width="12" stroke-miterlimit="10" stroke-linecap="round" stroke-linejoin="round"/>
<path d="M185.63 225.18H97.3199L156.03 141.58H259.67L210.51 211.9" stroke="#191919" stroke-width="12" stroke-miterlimit="10" stroke-linecap="round" stroke-linejoin="round"/>
<path d="M302.68 225.18L245.01 112.12H277.76C282.83 112.12 286.94 116.23 286.94 121.3C286.94 126.37 282.83 130.48 277.76 130.48H275.09" stroke="#191919" stroke-width="12" stroke-miterlimit="10" stroke-linecap="round" stroke-linejoin="round"/>
<path d="M127.06 117.09H161.49" stroke="#6A0BFF" stroke-width="12" stroke-miterlimit="10" stroke-linecap="round" stroke-linejoin="round"/>
<path d="M201.82 241.75C210.761 241.75 218.01 234.502 218.01 225.56C218.01 216.619 210.761 209.37 201.82 209.37C192.879 209.37 185.63 216.619 185.63 225.56C185.63 234.502 192.879 241.75 201.82 241.75Z" stroke="#191919" stroke-width="12" stroke-miterlimit="10" stroke-linecap="round" stroke-linejoin="round"/>
<path d="M201.82 225.82V203.45" stroke="#6A0BFF" stroke-width="12" stroke-miterlimit="10" stroke-linecap="round" stroke-linejoin="round"/>
<path d="M201.82 247.67C214.031 247.67 223.93 237.771 223.93 225.56C223.93 213.349 214.031 203.45 201.82 203.45C189.609 203.45 179.71 213.349 179.71 225.56C179.71 237.771 189.609 247.67 201.82 247.67Z" stroke="#191919" stroke-width="12" stroke-miterlimit="10" stroke-linecap="round" stroke-linejoin="round"/>
<path d="M194.02 203.45H209.61" stroke="#6A0BFF" stroke-width="12" stroke-miterlimit="10" stroke-linecap="round" stroke-linejoin="round"/>
</svg>
